<?xml version="1.0" standalone="yes"?>
<svg xmlns="http://www.w3.org/2000/svg" width="32" height="32">
<path style="fill:#3db0aa; stroke:none;" d="M0 0L0 32L32 32L32 0L0 0z"/>
<path style="fill:#eef8f8; stroke:none;" d="M15 15L9 15L9 17L13 17L13 22C10.6807 21.9247 8.20445 22.005 6.31636 20.3966C-0.491628 14.597 8.42189 9.7377 14 11C9.66639 4.86731 0.355821 9.86464 1.38812 16.9961C2.13255 22.1389 8.99559 26.5364 13.3966 22.2577C15.2851 20.4218 14.9716 17.3942 15 15M18 8C18 11.9227 17.0971 17.3376 19.179 20.8519C21.6521 25.0264 27.6195 24.3414 29.3966 19.9414C30.7938 16.482 30 11.6702 30 8L28 8C28 11.3027 29.272 19.0226 25.571 20.8241C19.2721 23.8899 20 10.8492 20 8L18 8z"/>
</svg>
